<mxfile host="Electron" modified="2024-05-22T03:51:23.688Z" agent="Mozilla/5.0 (Windows NT 10.0; Win64; x64) AppleWebKit/537.36 (KHTML, like Gecko) draw.io/24.4.0 Chrome/120.0.6099.109 Electron/28.1.0 Safari/537.36" etag="HWUFwqqMJgzi2W7bSjDX" version="24.4.0" type="device">
  <diagram name="第 1 页" id="_7qBQdUlKCpwVSh2hT6A">
    <mxGraphModel dx="2261" dy="2013" grid="1" gridSize="10" guides="1" tooltips="1" connect="1" arrows="1" fold="1" page="1" pageScale="1" pageWidth="827" pageHeight="1169" math="0" shadow="0">
      <root>
        <mxCell id="0" />
        <mxCell id="1" parent="0" />
        <mxCell id="t9_qDqPEXGj_OCP1J1L5-1" value="World" style="rounded=1;whiteSpace=wrap;html=1;fontSize=35;fillColor=#dae8fc;strokeColor=#6c8ebf;" parent="1" vertex="1">
          <mxGeometry x="240" y="60" width="260" height="70" as="geometry" />
        </mxCell>
        <mxCell id="t9_qDqPEXGj_OCP1J1L5-3" style="edgeStyle=orthogonalEdgeStyle;rounded=0;orthogonalLoop=1;jettySize=auto;html=1;entryX=0.5;entryY=1;entryDx=0;entryDy=0;" parent="1" source="t9_qDqPEXGj_OCP1J1L5-2" target="t9_qDqPEXGj_OCP1J1L5-1" edge="1">
          <mxGeometry relative="1" as="geometry" />
        </mxCell>
        <mxCell id="t9_qDqPEXGj_OCP1J1L5-2" value="FiberManager" style="rounded=1;whiteSpace=wrap;html=1;fillColor=#e1d5e7;strokeColor=#9673a6;fontSize=18;" parent="1" vertex="1">
          <mxGeometry x="295" y="190" width="150" height="60" as="geometry" />
        </mxCell>
        <mxCell id="t9_qDqPEXGj_OCP1J1L5-9" style="edgeStyle=orthogonalEdgeStyle;rounded=0;orthogonalLoop=1;jettySize=auto;html=1;entryX=0.5;entryY=1;entryDx=0;entryDy=0;" parent="1" source="t9_qDqPEXGj_OCP1J1L5-4" target="t9_qDqPEXGj_OCP1J1L5-2" edge="1">
          <mxGeometry relative="1" as="geometry" />
        </mxCell>
        <mxCell id="t9_qDqPEXGj_OCP1J1L5-4" value="Fiber" style="rounded=1;whiteSpace=wrap;html=1;fontSize=18;fillColor=#d5e8d4;strokeColor=#82b366;" parent="1" vertex="1">
          <mxGeometry x="305" y="330" width="130" height="40" as="geometry" />
        </mxCell>
        <mxCell id="t9_qDqPEXGj_OCP1J1L5-10" style="edgeStyle=orthogonalEdgeStyle;rounded=0;orthogonalLoop=1;jettySize=auto;html=1;entryX=0.5;entryY=1;entryDx=0;entryDy=0;" parent="1" source="t9_qDqPEXGj_OCP1J1L5-5" target="t9_qDqPEXGj_OCP1J1L5-4" edge="1">
          <mxGeometry relative="1" as="geometry" />
        </mxCell>
        <mxCell id="t9_qDqPEXGj_OCP1J1L5-5" value="Scene" style="rounded=1;whiteSpace=wrap;html=1;fillColor=#f5f5f5;fontColor=#333333;strokeColor=#666666;" parent="1" vertex="1">
          <mxGeometry x="310" y="440" width="110" height="30" as="geometry" />
        </mxCell>
        <mxCell id="t9_qDqPEXGj_OCP1J1L5-6" value="Component" style="rounded=1;whiteSpace=wrap;html=1;fillColor=#fff2cc;strokeColor=#d6b656;arcSize=0;" parent="1" vertex="1">
          <mxGeometry x="20" y="650" width="120" height="30" as="geometry" />
        </mxCell>
        <mxCell id="t9_qDqPEXGj_OCP1J1L5-11" value="Component" style="rounded=1;whiteSpace=wrap;html=1;fillColor=#fff2cc;strokeColor=#d6b656;" parent="1" vertex="1">
          <mxGeometry x="185" y="650" width="120" height="30" as="geometry" />
        </mxCell>
        <mxCell id="t9_qDqPEXGj_OCP1J1L5-14" value="Component" style="rounded=1;whiteSpace=wrap;html=1;fillColor=#fff2cc;strokeColor=#d6b656;" parent="1" vertex="1">
          <mxGeometry x="380" y="650" width="120" height="30" as="geometry" />
        </mxCell>
        <mxCell id="t9_qDqPEXGj_OCP1J1L5-15" value="Component" style="rounded=1;whiteSpace=wrap;html=1;fillColor=#fff2cc;strokeColor=#d6b656;" parent="1" vertex="1">
          <mxGeometry x="550" y="650" width="120" height="30" as="geometry" />
        </mxCell>
        <mxCell id="t9_qDqPEXGj_OCP1J1L5-16" value="Entity" style="rounded=1;whiteSpace=wrap;html=1;fillColor=#f8cecc;strokeColor=#b85450;" parent="1" vertex="1">
          <mxGeometry x="-90" y="760" width="120" height="30" as="geometry" />
        </mxCell>
        <mxCell id="t9_qDqPEXGj_OCP1J1L5-18" value="" style="endArrow=classic;html=1;rounded=0;exitX=0.683;exitY=-0.167;exitDx=0;exitDy=0;exitPerimeter=0;entryX=0.333;entryY=1;entryDx=0;entryDy=0;entryPerimeter=0;" parent="1" source="t9_qDqPEXGj_OCP1J1L5-6" target="t9_qDqPEXGj_OCP1J1L5-5" edge="1">
          <mxGeometry width="50" height="50" relative="1" as="geometry">
            <mxPoint x="390" y="460" as="sourcePoint" />
            <mxPoint x="440" y="410" as="targetPoint" />
          </mxGeometry>
        </mxCell>
        <mxCell id="t9_qDqPEXGj_OCP1J1L5-19" value="" style="endArrow=classic;html=1;rounded=0;exitX=0.5;exitY=0;exitDx=0;exitDy=0;entryX=0.5;entryY=1;entryDx=0;entryDy=0;" parent="1" source="t9_qDqPEXGj_OCP1J1L5-11" target="t9_qDqPEXGj_OCP1J1L5-5" edge="1">
          <mxGeometry width="50" height="50" relative="1" as="geometry">
            <mxPoint x="112" y="655" as="sourcePoint" />
            <mxPoint x="357" y="480" as="targetPoint" />
          </mxGeometry>
        </mxCell>
        <mxCell id="t9_qDqPEXGj_OCP1J1L5-20" value="" style="endArrow=classic;html=1;rounded=0;exitX=0.575;exitY=-0.133;exitDx=0;exitDy=0;entryX=0.591;entryY=1;entryDx=0;entryDy=0;exitPerimeter=0;entryPerimeter=0;" parent="1" source="t9_qDqPEXGj_OCP1J1L5-14" target="t9_qDqPEXGj_OCP1J1L5-5" edge="1">
          <mxGeometry width="50" height="50" relative="1" as="geometry">
            <mxPoint x="255" y="660" as="sourcePoint" />
            <mxPoint x="375" y="480" as="targetPoint" />
          </mxGeometry>
        </mxCell>
        <mxCell id="t9_qDqPEXGj_OCP1J1L5-21" value="" style="endArrow=classic;html=1;rounded=0;exitX=0.5;exitY=0;exitDx=0;exitDy=0;entryX=0.75;entryY=1;entryDx=0;entryDy=0;" parent="1" source="t9_qDqPEXGj_OCP1J1L5-15" target="t9_qDqPEXGj_OCP1J1L5-5" edge="1">
          <mxGeometry width="50" height="50" relative="1" as="geometry">
            <mxPoint x="604" y="646" as="sourcePoint" />
            <mxPoint x="530" y="480" as="targetPoint" />
          </mxGeometry>
        </mxCell>
        <mxCell id="t9_qDqPEXGj_OCP1J1L5-22" value="Entity" style="rounded=1;whiteSpace=wrap;html=1;fillColor=#f8cecc;strokeColor=#b85450;" parent="1" vertex="1">
          <mxGeometry x="50" y="760" width="120" height="30" as="geometry" />
        </mxCell>
        <mxCell id="t9_qDqPEXGj_OCP1J1L5-23" value="" style="endArrow=classic;html=1;rounded=0;exitX=0.5;exitY=0;exitDx=0;exitDy=0;entryX=0.408;entryY=0.967;entryDx=0;entryDy=0;entryPerimeter=0;" parent="1" source="t9_qDqPEXGj_OCP1J1L5-16" target="t9_qDqPEXGj_OCP1J1L5-6" edge="1">
          <mxGeometry width="50" height="50" relative="1" as="geometry">
            <mxPoint x="390" y="460" as="sourcePoint" />
            <mxPoint x="440" y="410" as="targetPoint" />
          </mxGeometry>
        </mxCell>
        <mxCell id="t9_qDqPEXGj_OCP1J1L5-24" value="" style="endArrow=classic;html=1;rounded=0;entryX=0.408;entryY=0.967;entryDx=0;entryDy=0;entryPerimeter=0;" parent="1" source="t9_qDqPEXGj_OCP1J1L5-22" edge="1">
          <mxGeometry width="50" height="50" relative="1" as="geometry">
            <mxPoint x="-20" y="770" as="sourcePoint" />
            <mxPoint x="79" y="689" as="targetPoint" />
          </mxGeometry>
        </mxCell>
        <mxCell id="t9_qDqPEXGj_OCP1J1L5-25" value="Entity" style="rounded=1;whiteSpace=wrap;html=1;fillColor=#f8cecc;strokeColor=#b85450;" parent="1" vertex="1">
          <mxGeometry x="185" y="760" width="120" height="30" as="geometry" />
        </mxCell>
        <mxCell id="t9_qDqPEXGj_OCP1J1L5-28" style="edgeStyle=orthogonalEdgeStyle;rounded=0;orthogonalLoop=1;jettySize=auto;html=1;entryX=0.75;entryY=1;entryDx=0;entryDy=0;" parent="1" source="t9_qDqPEXGj_OCP1J1L5-26" target="t9_qDqPEXGj_OCP1J1L5-11" edge="1">
          <mxGeometry relative="1" as="geometry" />
        </mxCell>
        <mxCell id="t9_qDqPEXGj_OCP1J1L5-26" value="Entity" style="rounded=1;whiteSpace=wrap;html=1;fillColor=#f8cecc;strokeColor=#b85450;" parent="1" vertex="1">
          <mxGeometry x="325" y="760" width="85" height="30" as="geometry" />
        </mxCell>
        <mxCell id="t9_qDqPEXGj_OCP1J1L5-27" value="" style="endArrow=classic;html=1;rounded=0;entryX=0.383;entryY=1;entryDx=0;entryDy=0;entryPerimeter=0;exitX=0.55;exitY=-0.2;exitDx=0;exitDy=0;exitPerimeter=0;" parent="1" source="t9_qDqPEXGj_OCP1J1L5-25" target="t9_qDqPEXGj_OCP1J1L5-11" edge="1">
          <mxGeometry width="50" height="50" relative="1" as="geometry">
            <mxPoint x="115" y="770" as="sourcePoint" />
            <mxPoint x="89" y="699" as="targetPoint" />
          </mxGeometry>
        </mxCell>
        <mxCell id="GGB7gB9ogwan5-YQch5G-1" value="游戏客户端进程" style="rounded=1;whiteSpace=wrap;html=1;fontSize=26;fillColor=#e1d5e7;strokeColor=#9673a6;" vertex="1" parent="1">
          <mxGeometry x="1040" y="-50" width="280" height="70" as="geometry" />
        </mxCell>
        <mxCell id="GGB7gB9ogwan5-YQch5G-6" style="edgeStyle=orthogonalEdgeStyle;rounded=0;orthogonalLoop=1;jettySize=auto;html=1;" edge="1" parent="1" source="GGB7gB9ogwan5-YQch5G-2">
          <mxGeometry relative="1" as="geometry">
            <mxPoint x="1190" y="30" as="targetPoint" />
          </mxGeometry>
        </mxCell>
        <mxCell id="GGB7gB9ogwan5-YQch5G-2" value="World" style="rounded=1;whiteSpace=wrap;html=1;fillColor=#dae8fc;strokeColor=#6c8ebf;fontSize=24;" vertex="1" parent="1">
          <mxGeometry x="1130" y="70" width="120" height="60" as="geometry" />
        </mxCell>
        <mxCell id="GGB7gB9ogwan5-YQch5G-7" style="edgeStyle=orthogonalEdgeStyle;rounded=0;orthogonalLoop=1;jettySize=auto;html=1;entryX=0.5;entryY=1;entryDx=0;entryDy=0;" edge="1" parent="1" source="GGB7gB9ogwan5-YQch5G-3" target="GGB7gB9ogwan5-YQch5G-2">
          <mxGeometry relative="1" as="geometry" />
        </mxCell>
        <mxCell id="GGB7gB9ogwan5-YQch5G-3" value="FiberManager" style="rounded=1;whiteSpace=wrap;html=1;fillColor=#f5f5f5;fontColor=#333333;strokeColor=#666666;" vertex="1" parent="1">
          <mxGeometry x="1130" y="220" width="120" height="40" as="geometry" />
        </mxCell>
        <mxCell id="GGB7gB9ogwan5-YQch5G-8" style="edgeStyle=orthogonalEdgeStyle;rounded=0;orthogonalLoop=1;jettySize=auto;html=1;exitX=0.75;exitY=0;exitDx=0;exitDy=0;entryX=0.25;entryY=1;entryDx=0;entryDy=0;" edge="1" parent="1" source="GGB7gB9ogwan5-YQch5G-4" target="GGB7gB9ogwan5-YQch5G-3">
          <mxGeometry relative="1" as="geometry" />
        </mxCell>
        <mxCell id="GGB7gB9ogwan5-YQch5G-4" value="Fiber" style="rounded=1;whiteSpace=wrap;html=1;" vertex="1" parent="1">
          <mxGeometry x="1020" y="300" width="120" height="60" as="geometry" />
        </mxCell>
        <mxCell id="GGB7gB9ogwan5-YQch5G-5" value="Fiber" style="rounded=1;whiteSpace=wrap;html=1;" vertex="1" parent="1">
          <mxGeometry x="1230" y="300" width="120" height="70" as="geometry" />
        </mxCell>
        <mxCell id="GGB7gB9ogwan5-YQch5G-9" style="edgeStyle=orthogonalEdgeStyle;rounded=0;orthogonalLoop=1;jettySize=auto;html=1;entryX=0.6;entryY=1.033;entryDx=0;entryDy=0;entryPerimeter=0;" edge="1" parent="1" source="GGB7gB9ogwan5-YQch5G-5" target="GGB7gB9ogwan5-YQch5G-3">
          <mxGeometry relative="1" as="geometry" />
        </mxCell>
        <mxCell id="GGB7gB9ogwan5-YQch5G-11" style="edgeStyle=orthogonalEdgeStyle;rounded=0;orthogonalLoop=1;jettySize=auto;html=1;entryX=0.5;entryY=1;entryDx=0;entryDy=0;" edge="1" parent="1" source="GGB7gB9ogwan5-YQch5G-10" target="GGB7gB9ogwan5-YQch5G-4">
          <mxGeometry relative="1" as="geometry" />
        </mxCell>
        <mxCell id="GGB7gB9ogwan5-YQch5G-10" value="Scene(Main)" style="rounded=1;whiteSpace=wrap;html=1;fillColor=#d5e8d4;strokeColor=#82b366;fontSize=18;" vertex="1" parent="1">
          <mxGeometry x="960" y="430" width="130" height="30" as="geometry" />
        </mxCell>
        <mxCell id="GGB7gB9ogwan5-YQch5G-18" style="edgeStyle=orthogonalEdgeStyle;rounded=0;orthogonalLoop=1;jettySize=auto;html=1;" edge="1" parent="1" source="GGB7gB9ogwan5-YQch5G-12">
          <mxGeometry relative="1" as="geometry">
            <mxPoint x="1300" y="380" as="targetPoint" />
          </mxGeometry>
        </mxCell>
        <mxCell id="GGB7gB9ogwan5-YQch5G-12" value="Scene(NetClient)" style="rounded=1;whiteSpace=wrap;html=1;fillColor=#d5e8d4;strokeColor=#82b366;fontSize=18;" vertex="1" parent="1">
          <mxGeometry x="1225" y="420" width="205" height="40" as="geometry" />
        </mxCell>
        <mxCell id="GGB7gB9ogwan5-YQch5G-13" value="xxxComponent" style="rounded=1;whiteSpace=wrap;html=1;fillColor=#fff2cc;strokeColor=#d6b656;" vertex="1" parent="1">
          <mxGeometry x="790" y="510" width="120" height="40" as="geometry" />
        </mxCell>
        <mxCell id="GGB7gB9ogwan5-YQch5G-15" style="edgeStyle=orthogonalEdgeStyle;rounded=0;orthogonalLoop=1;jettySize=auto;html=1;entryX=0.5;entryY=1;entryDx=0;entryDy=0;" edge="1" parent="1" source="GGB7gB9ogwan5-YQch5G-14" target="GGB7gB9ogwan5-YQch5G-10">
          <mxGeometry relative="1" as="geometry" />
        </mxCell>
        <mxCell id="GGB7gB9ogwan5-YQch5G-14" value="CurrentSceneComponent" style="rounded=1;whiteSpace=wrap;html=1;fillColor=#fff2cc;strokeColor=#d6b656;" vertex="1" parent="1">
          <mxGeometry x="945" y="510" width="185" height="40" as="geometry" />
        </mxCell>
        <mxCell id="GGB7gB9ogwan5-YQch5G-16" value="xxxComponent" style="rounded=1;whiteSpace=wrap;html=1;fillColor=#fff2cc;strokeColor=#d6b656;" vertex="1" parent="1">
          <mxGeometry x="1210" y="510" width="120" height="40" as="geometry" />
        </mxCell>
        <mxCell id="GGB7gB9ogwan5-YQch5G-20" style="edgeStyle=orthogonalEdgeStyle;rounded=0;orthogonalLoop=1;jettySize=auto;html=1;" edge="1" parent="1" source="GGB7gB9ogwan5-YQch5G-17">
          <mxGeometry relative="1" as="geometry">
            <mxPoint x="1370" y="470" as="targetPoint" />
          </mxGeometry>
        </mxCell>
        <mxCell id="GGB7gB9ogwan5-YQch5G-17" value="xxxComponent" style="rounded=1;whiteSpace=wrap;html=1;fillColor=#fff2cc;strokeColor=#d6b656;" vertex="1" parent="1">
          <mxGeometry x="1390" y="510" width="120" height="40" as="geometry" />
        </mxCell>
        <mxCell id="GGB7gB9ogwan5-YQch5G-19" style="edgeStyle=orthogonalEdgeStyle;rounded=0;orthogonalLoop=1;jettySize=auto;html=1;entryX=0.366;entryY=1.025;entryDx=0;entryDy=0;entryPerimeter=0;" edge="1" parent="1" source="GGB7gB9ogwan5-YQch5G-16" target="GGB7gB9ogwan5-YQch5G-12">
          <mxGeometry relative="1" as="geometry" />
        </mxCell>
        <mxCell id="GGB7gB9ogwan5-YQch5G-22" style="edgeStyle=orthogonalEdgeStyle;rounded=0;orthogonalLoop=1;jettySize=auto;html=1;" edge="1" parent="1" source="GGB7gB9ogwan5-YQch5G-21">
          <mxGeometry relative="1" as="geometry">
            <mxPoint x="1040" y="560" as="targetPoint" />
          </mxGeometry>
        </mxCell>
        <mxCell id="GGB7gB9ogwan5-YQch5G-21" value="Scene(CurrentScene)" style="rounded=1;whiteSpace=wrap;html=1;fillColor=#d5e8d4;strokeColor=#82b366;fontSize=18;" vertex="1" parent="1">
          <mxGeometry x="940" y="610" width="200" height="30" as="geometry" />
        </mxCell>
        <mxCell id="GGB7gB9ogwan5-YQch5G-23" style="edgeStyle=orthogonalEdgeStyle;rounded=0;orthogonalLoop=1;jettySize=auto;html=1;exitX=0.75;exitY=0;exitDx=0;exitDy=0;entryX=0.408;entryY=1.067;entryDx=0;entryDy=0;entryPerimeter=0;" edge="1" parent="1" source="GGB7gB9ogwan5-YQch5G-13" target="GGB7gB9ogwan5-YQch5G-10">
          <mxGeometry relative="1" as="geometry" />
        </mxCell>
        <mxCell id="GGB7gB9ogwan5-YQch5G-28" style="edgeStyle=orthogonalEdgeStyle;rounded=0;orthogonalLoop=1;jettySize=auto;html=1;exitX=0.75;exitY=0;exitDx=0;exitDy=0;entryX=0.25;entryY=1;entryDx=0;entryDy=0;" edge="1" parent="1" source="GGB7gB9ogwan5-YQch5G-24" target="GGB7gB9ogwan5-YQch5G-21">
          <mxGeometry relative="1" as="geometry" />
        </mxCell>
        <mxCell id="GGB7gB9ogwan5-YQch5G-24" value="xxxComponent" style="rounded=1;whiteSpace=wrap;html=1;fillColor=#fff2cc;strokeColor=#d6b656;" vertex="1" parent="1">
          <mxGeometry x="780" y="720" width="120" height="40" as="geometry" />
        </mxCell>
        <mxCell id="GGB7gB9ogwan5-YQch5G-25" value="xxxComponent" style="rounded=1;whiteSpace=wrap;html=1;fillColor=#fff2cc;strokeColor=#d6b656;" vertex="1" parent="1">
          <mxGeometry x="1050" y="720" width="120" height="40" as="geometry" />
        </mxCell>
        <mxCell id="GGB7gB9ogwan5-YQch5G-26" value="UnitComponent" style="rounded=1;whiteSpace=wrap;html=1;fillColor=#f8cecc;strokeColor=#b85450;" vertex="1" parent="1">
          <mxGeometry x="940" y="810" width="120" height="40" as="geometry" />
        </mxCell>
        <mxCell id="GGB7gB9ogwan5-YQch5G-27" style="edgeStyle=orthogonalEdgeStyle;rounded=0;orthogonalLoop=1;jettySize=auto;html=1;entryX=0.465;entryY=1.1;entryDx=0;entryDy=0;entryPerimeter=0;" edge="1" parent="1" source="GGB7gB9ogwan5-YQch5G-26" target="GGB7gB9ogwan5-YQch5G-21">
          <mxGeometry relative="1" as="geometry" />
        </mxCell>
        <mxCell id="GGB7gB9ogwan5-YQch5G-29" style="edgeStyle=orthogonalEdgeStyle;rounded=0;orthogonalLoop=1;jettySize=auto;html=1;exitX=0.25;exitY=0;exitDx=0;exitDy=0;entryX=0.685;entryY=0.933;entryDx=0;entryDy=0;entryPerimeter=0;" edge="1" parent="1" source="GGB7gB9ogwan5-YQch5G-25" target="GGB7gB9ogwan5-YQch5G-21">
          <mxGeometry relative="1" as="geometry" />
        </mxCell>
        <mxCell id="GGB7gB9ogwan5-YQch5G-34" style="edgeStyle=orthogonalEdgeStyle;rounded=0;orthogonalLoop=1;jettySize=auto;html=1;exitX=0.75;exitY=0;exitDx=0;exitDy=0;" edge="1" parent="1" source="GGB7gB9ogwan5-YQch5G-30">
          <mxGeometry relative="1" as="geometry">
            <mxPoint x="970" y="860" as="targetPoint" />
          </mxGeometry>
        </mxCell>
        <mxCell id="GGB7gB9ogwan5-YQch5G-30" value="Unit" style="rounded=1;whiteSpace=wrap;html=1;fillColor=#dae8fc;strokeColor=#6c8ebf;" vertex="1" parent="1">
          <mxGeometry x="820" y="930" width="70" height="30" as="geometry" />
        </mxCell>
        <mxCell id="GGB7gB9ogwan5-YQch5G-31" value="Unit" style="rounded=1;whiteSpace=wrap;html=1;fillColor=#dae8fc;strokeColor=#6c8ebf;" vertex="1" parent="1">
          <mxGeometry x="910" y="930" width="70" height="30" as="geometry" />
        </mxCell>
        <mxCell id="GGB7gB9ogwan5-YQch5G-36" style="edgeStyle=orthogonalEdgeStyle;rounded=0;orthogonalLoop=1;jettySize=auto;html=1;" edge="1" parent="1" source="GGB7gB9ogwan5-YQch5G-32">
          <mxGeometry relative="1" as="geometry">
            <mxPoint x="1020" y="860" as="targetPoint" />
          </mxGeometry>
        </mxCell>
        <mxCell id="GGB7gB9ogwan5-YQch5G-32" value="Unit" style="rounded=1;whiteSpace=wrap;html=1;fillColor=#dae8fc;strokeColor=#6c8ebf;" vertex="1" parent="1">
          <mxGeometry x="1010" y="930" width="70" height="30" as="geometry" />
        </mxCell>
        <mxCell id="GGB7gB9ogwan5-YQch5G-33" value="Unit" style="rounded=1;whiteSpace=wrap;html=1;fillColor=#dae8fc;strokeColor=#6c8ebf;" vertex="1" parent="1">
          <mxGeometry x="1110" y="930" width="70" height="30" as="geometry" />
        </mxCell>
        <mxCell id="GGB7gB9ogwan5-YQch5G-35" style="edgeStyle=orthogonalEdgeStyle;rounded=0;orthogonalLoop=1;jettySize=auto;html=1;entryX=0.442;entryY=1;entryDx=0;entryDy=0;entryPerimeter=0;" edge="1" parent="1" source="GGB7gB9ogwan5-YQch5G-31" target="GGB7gB9ogwan5-YQch5G-26">
          <mxGeometry relative="1" as="geometry" />
        </mxCell>
        <mxCell id="GGB7gB9ogwan5-YQch5G-37" style="edgeStyle=orthogonalEdgeStyle;rounded=0;orthogonalLoop=1;jettySize=auto;html=1;entryX=0.917;entryY=1;entryDx=0;entryDy=0;entryPerimeter=0;" edge="1" parent="1" source="GGB7gB9ogwan5-YQch5G-33" target="GGB7gB9ogwan5-YQch5G-26">
          <mxGeometry relative="1" as="geometry">
            <Array as="points">
              <mxPoint x="1145" y="910" />
              <mxPoint x="1050" y="910" />
            </Array>
          </mxGeometry>
        </mxCell>
        <mxCell id="GGB7gB9ogwan5-YQch5G-38" value="游戏服务器端进程" style="rounded=1;whiteSpace=wrap;html=1;fontSize=26;fillColor=#e1d5e7;strokeColor=#9673a6;" vertex="1" parent="1">
          <mxGeometry x="1860" y="-50" width="280" height="70" as="geometry" />
        </mxCell>
        <mxCell id="GGB7gB9ogwan5-YQch5G-39" value="World" style="rounded=1;whiteSpace=wrap;html=1;fillColor=#dae8fc;strokeColor=#6c8ebf;fontSize=24;" vertex="1" parent="1">
          <mxGeometry x="1940" y="70" width="120" height="60" as="geometry" />
        </mxCell>
        <mxCell id="GGB7gB9ogwan5-YQch5G-40" value="FiberManager" style="rounded=1;whiteSpace=wrap;html=1;fillColor=#f5f5f5;fontColor=#333333;strokeColor=#666666;" vertex="1" parent="1">
          <mxGeometry x="1930" y="220" width="120" height="40" as="geometry" />
        </mxCell>
        <mxCell id="GGB7gB9ogwan5-YQch5G-41" value="Fiber" style="rounded=1;whiteSpace=wrap;html=1;fillColor=#dae8fc;strokeColor=#6c8ebf;" vertex="1" parent="1">
          <mxGeometry x="1800" y="330" width="120" height="40" as="geometry" />
        </mxCell>
        <mxCell id="GGB7gB9ogwan5-YQch5G-42" value="Fiber" style="rounded=1;whiteSpace=wrap;html=1;fillColor=#dae8fc;strokeColor=#6c8ebf;" vertex="1" parent="1">
          <mxGeometry x="1970" y="330" width="120" height="40" as="geometry" />
        </mxCell>
        <mxCell id="GGB7gB9ogwan5-YQch5G-43" value="Fiber" style="rounded=1;whiteSpace=wrap;html=1;fillColor=#dae8fc;strokeColor=#6c8ebf;" vertex="1" parent="1">
          <mxGeometry x="2160" y="330" width="120" height="40" as="geometry" />
        </mxCell>
      </root>
    </mxGraphModel>
  </diagram>
</mxfile>
